<?xml version="1.0" encoding="UTF-8" standalone="no"?><svg xmlns="http://www.w3.org/2000/svg" xmlns:xlink="http://www.w3.org/1999/xlink" fill="#3a4f6e" height="48.6" preserveAspectRatio="xMidYMid meet" version="1" viewBox="0.0 -0.6 41.2 48.6" width="41.2" zoomAndPan="magnify"><g id="change1_1"><path d="M0 0L0 0" fill="inherit" stroke="#449fdb"/></g><g id="change1_2"><path d="M16.592 15.166c-0.104 0-0.21-0.018-0.316-0.050-1.126-0.382-2.124-1.006-2.972-1.85-3.002-3-3.002-7.882 0-10.892 3.002-2.996 7.886-2.996 10.886 0 3 3.004 3 7.884 0 10.892-0.382 0.378-1.004 0.378-1.386 0s-0.382-1.006 0-1.384c2.236-2.244 2.236-5.878 0-8.122-2.238-2.236-5.878-2.236-8.116 0-2.238 2.244-2.238 5.878 0 8.122 0.632 0.626 1.38 1.098 2.218 1.38 0.512 0.174 0.786 0.73 0.614 1.242-0.138 0.404-0.518 0.662-0.928 0.662z" fill="inherit"/></g><g id="change1_3"><path d="M25.676 15.808c-0.252 0-0.5-0.096-0.694-0.286-0.382-0.38-0.382-1.002 0-1.384 3.436-3.436 3.436-9.030 0-12.466-0.382-0.378-0.382-1.004 0-1.384 0.382-0.378 1.004-0.378 1.386 0 4.2 4.204 4.2 11.036 0 15.236-0.19 0.188-0.442 0.284-0.692 0.284z" fill="inherit"/></g><g id="change1_4"><path d="M11.822 15.808c-0.25 0-0.502-0.096-0.694-0.286-4.206-4.202-4.206-11.036 0-15.236 0.382-0.378 1.002-0.378 1.384 0 0.382 0.38 0.382 1.006 0 1.384-3.436 3.436-3.436 9.030 0 12.466 0.382 0.382 0.382 1.004 0 1.384-0.19 0.192-0.44 0.288-0.69 0.288z" fill="inherit"/></g><g id="change1_5"><path d="M32.734 48.002h-11.070c-4.624 0-7.93-7.412-10.844-13.954-1.13-2.538-2.198-4.932-3.078-6.172-1.174-1.65-1.374-4.61 0.124-6.108 1.47-1.464 3.904-1.512 5.334-0.092l2.528 2.744v-15.962c0-2.072 1.794-3.818 3.918-3.818 2.162 0 3.918 1.694 3.918 3.782v8.484c0.576-0.322 1.248-0.506 1.958-0.506 1.688 0 3.164 1.102 3.704 2.596 0.622-0.406 1.374-0.64 2.174-0.64 1.688 0 3.166 1.104 3.706 2.596 0.62-0.402 1.372-0.636 2.174-0.636 2.124 0 3.918 1.756 3.918 3.82v10.6c0 8.094-7.616 12.924-7.94 13.126-0.162 0.090-0.342 0.14-0.524 0.14zM10.612 22.562c-0.498 0-0.982 0.208-1.366 0.594-0.726 0.726-0.56 2.668 0.094 3.59 0.994 1.398 2.046 3.768 3.27 6.506 2.406 5.394 5.702 12.79 9.054 12.79h10.772c1.196-0.828 6.796-5.034 6.796-11.312v-10.6c0-1.010-0.898-1.858-1.958-1.858-1.064 0-1.958 0.834-1.958 1.82 0 0.542-0.442 0.98-0.98 0.98s-0.98-0.438-0.98-0.98v-1.918c0-1.012-0.898-1.86-1.958-1.86-1.062 0-1.958 0.834-1.958 1.82 0 0.542-0.44 0.98-0.978 0.98-0.542 0-0.98-0.438-0.98-0.98v-1.918c0-1.010-0.898-1.86-1.958-1.86-1.062 0-1.958 0.834-1.958 1.82 0 0.542-0.438 0.98-0.98 0.98-0.54 0-0.98-0.438-0.98-0.98v-11.756c0-0.984-0.898-1.82-1.958-1.82-1.062 0-1.96 0.856-1.96 1.86v18.478c0 0.404-0.246 0.766-0.622 0.914s-0.804 0.042-1.076-0.248l-4.2-4.564c-0.31-0.306-0.724-0.478-1.178-0.478z" fill="inherit"/></g></svg>