<?xml version="1.0" encoding="UTF-8" standalone="no"?><svg xmlns="http://www.w3.org/2000/svg" xmlns:xlink="http://www.w3.org/1999/xlink" fill="#ffdada" height="60.3" preserveAspectRatio="xMidYMid meet" version="1" viewBox="1.8 2.0 60.5 60.3" width="60.5" zoomAndPan="magnify"><g id="change1_1"><path d="M60.6,36l0.6-0.8c1-1.3,1.1-3.2,0.1-4.5c-0.6-0.8-1.6-1.4-2.6-1.5c-1-0.1-2,0.2-2.8,0.9L52.5,33c-0.1-0.1-0.1-0.2-0.2-0.3 c-0.6-0.8-1.6-1.4-2.6-1.5c-1-0.1-2.1,0.2-2.8,0.9l-1.6,1.4c0,0,0,0,0,0c-0.6-0.8-1.5-1.3-2.5-1.5c-1-0.1-2,0.2-2.8,0.8L32.4,39 h-3.1c-3.3,0-6.1,0.6-8.6,2l-2.1,1.1c-7.6,4-13.4,10.6-16.6,18.6c-0.2,0.5,0.1,1.1,0.6,1.3c0.5,0.2,1.1-0.1,1.3-0.6 c3-7.5,8.5-13.7,15.6-17.5l2.1-1.1c2.2-1.2,4.7-1.7,7.7-1.7h6.7c0.8,0,1.6,0.6,1.6,1.3c0,0.4-0.1,0.8-0.4,1.2 c-0.3,0.3-0.7,0.5-1.1,0.5h-8.5c-0.6,0-1,0.4-1,1s0.4,1,1,1h19c0.2,0,0.5-0.1,0.6-0.2l9.8-8.2c0.7-0.5,1.6-0.6,2.2,0 c0.3,0.3,0.5,0.7,0.5,1.2c0,0.4-0.2,0.9-0.5,1.2l-9.3,9.3c-1.9,1.9-4.3,3.1-6.9,3.4l-14.5,1.9c-2.9,0.4-5.3,2.3-6.4,5l-0.5,1.2 c-0.2,0.5,0,1.1,0.6,1.3c0.1,0,0.2,0.1,0.4,0.1c0.4,0,0.8-0.2,0.9-0.6l0.5-1.2c0.8-2,2.6-3.4,4.8-3.7l14.5-1.9c3-0.4,5.9-1.8,8.1-4 l9.3-9.3c0.7-0.7,1.1-1.6,1.1-2.6C61.9,37.7,61.5,36.8,60.6,36C60.7,36.1,60.7,36,60.6,36z M36.1,39h-0.5l5.6-4.6 c0.4-0.3,0.8-0.4,1.3-0.4c0.5,0.1,0.9,0.3,1.2,0.7c0,0,0,0.1,0,0.1l-5.6,4.8C37.5,39.2,36.8,39,36.1,39z M39.4,44 c0.3-0.6,0.4-1.2,0.3-1.9c0-0.4-0.2-0.7-0.3-1.1l8.8-7.4c0.4-0.3,0.8-0.5,1.3-0.4c0.5,0.1,0.9,0.3,1.2,0.7c0.1,0.1,0.2,0.3,0.2,0.4 L39.5,44H39.4z M59.6,34l-0.9,1.2c-1-0.1-2,0.2-2.8,0.9L46.4,44h-3.7l14.5-12.4c0.4-0.3,0.8-0.5,1.3-0.4c0.5,0.1,0.9,0.3,1.2,0.7 C60.1,32.5,60.1,33.4,59.6,34z" fill="inherit"/><path d="M18,15v-1.6l-0.7-0.7c-0.4-0.4-0.4-1,0-1.4s1-0.4,1.4,0l0.3,0.3l0.3-0.3c0.4-0.4,1-0.4,1.4,0s0.4,1,0,1.4L20,13.4V15h1.6 c0.9-0.8,1.4-1.8,1.4-3c0-2.2-1.8-4-4-4s-4,1.8-4,4c0,1.2,0.5,2.2,1.4,3H18z" fill="inherit"/><path d="M19,23c1.1,0,2-0.9,2-2h-4C17,22.1,17.9,23,19,23z" fill="inherit"/><path d="M16,19h6c0.6,0,1-0.4,1-1s-0.4-1-1-1h-6c-0.6,0-1,0.4-1,1S15.5,19,16,19z" fill="inherit"/><path d="M13,30h4.6l9.7,7.8c0.2,0.1,0.4,0.2,0.6,0.2c0.1,0,0.3,0,0.4-0.1c0.3-0.2,0.6-0.5,0.6-0.9v-7h14c2.8,0,5-2.2,5-5V7 c0-2.8-2.2-5-5-5H13c-2.8,0-5,2.2-5,5v18C8,27.8,10.3,30,13,30z M31,9h11c0.6,0,1,0.4,1,1s-0.4,1-1,1H31c-0.6,0-1-0.4-1-1 S30.5,9,31,9z M28,13h14c0.6,0,1,0.4,1,1s-0.4,1-1,1H28c-0.6,0-1-0.4-1-1S27.5,13,28,13z M28,17h12c0.6,0,1,0.4,1,1s-0.4,1-1,1H28 c-0.6,0-1-0.4-1-1S27.5,17,28,17z M28,21h8c0.6,0,1,0.4,1,1s-0.4,1-1,1h-8c-0.6,0-1-0.4-1-1S27.5,21,28,21z M13,12c0-3.3,2.7-6,6-6 s6,2.7,6,6c0,1.3-0.4,2.6-1.2,3.6C24.5,16.1,25,17,25,18c0,1.3-0.8,2.4-2,2.8V21c0,2.2-1.8,4-4,4s-4-1.8-4-4v-0.2 c-1.2-0.4-2-1.5-2-2.8c0-1,0.5-1.9,1.2-2.4C13.5,14.6,13,13.3,13,12z" fill="inherit"/></g></svg>