<?xml version="1.0" encoding="UTF-8" standalone="no"?><svg xmlns="http://www.w3.org/2000/svg" xmlns:xlink="http://www.w3.org/1999/xlink" fill="#ffdada" height="100" preserveAspectRatio="xMidYMid meet" version="1" viewBox="25.0 25.0 100.0 100.0" width="100" zoomAndPan="magnify"><g clip-rule="evenodd" fill-rule="evenodd" id="change1_1"><path d="M38.157,55.526l5.052,6.315H33.105L38.157,55.526z M46.052,67.105 c0,4.342-3.553,7.895-7.895,7.895c-4.342,0-7.895-3.553-7.895-7.895H46.052z M72.368,32.895c0-1.448,1.184-2.632,2.632-2.632 c0.71,0,1.342,0.264,1.868,0.816c0.5,0.474,0.763,1.105,0.763,1.815l0.001,5.526c-0.842-0.185-1.737-0.263-2.632-0.263 c-0.895-0.001-1.79,0.078-2.632,0.263V32.895z M96.052,114.474v5.263H53.947v-5.263H96.052z M85.526,103.947v5.263H64.473v-5.263 H85.526z M72.368,98.684V64.21c0.842,0.185,1.737,0.264,2.632,0.264c0.895,0,1.789-0.079,2.631-0.263l0.001,34.473H72.368z M75,59.211c-4.342,0-7.896-3.553-7.896-7.896c0.001-4.343,3.553-7.895,7.896-7.895c4.342,0,7.895,3.553,7.895,7.895 C82.894,55.658,79.341,59.211,75,59.211z M111.842,55.526l5.052,6.315H106.79L111.842,55.526z M111.842,75 c-4.344,0-7.896-3.553-7.896-7.895h15.79C119.737,71.447,116.183,75,111.842,75z M124.944,63.947 c-0.108-0.506-0.376-0.939-0.734-1.342c0,0-10.146-12.689-10.185-12.737c-0.539-0.677-1.288-1.184-2.184-1.184l-23.947-0.001 c-0.657-3.21-2.474-6-5-7.895v-7.895c0-2.131-0.843-4.132-2.289-5.553C79.131,25.842,77.131,25,75,25 c-4.342-0.001-7.896,3.553-7.896,7.895l0.001,7.895c-2.526,1.895-4.343,4.685-5.001,7.896c0,0-23.944,0-23.947,0 c-0.787-0.001-1.808,0.435-2.185,1.184c0,0-10.179,12.731-10.184,12.737C25.341,63.163,25,63.724,25,64.474v2.632 c0,7.264,5.895,13.158,13.158,13.158s13.158-5.895,13.158-13.158v-2.632c0-0.737-0.311-1.329-0.79-1.868l-6.894-8.658h18.474 c0.658,3.211,2.473,6,4.999,7.895l0.001,36.842h-5.264c-1.447,0-2.632,1.185-2.632,2.632v7.895h-7.895 c-1.447,0-2.631,1.185-2.631,2.632v10.526c0,1.447,1.184,2.632,2.631,2.632h47.369c1.447,0,2.631-1.184,2.631-2.632l0.001-10.526 c0-1.447-1.185-2.631-2.632-2.631l-7.895-0.001v-7.895c0-1.447-1.185-2.632-2.633-2.632h-5.263V61.842 c2.526-1.895,4.343-4.684,5-7.895h18.474c0,0-6.882,8.642-6.895,8.658c-0.435,0.545-0.789,1.127-0.789,1.868v2.632 c0,7.264,5.895,13.158,13.157,13.158s13.157-5.895,13.157-13.158L125,64.474C125,64.289,124.978,64.116,124.944,63.947z"/><path d="M75.052,53.947c-1.453,0-2.645-1.179-2.645-2.632 c0-1.452,1.166-2.631,2.619-2.631l0.026-0.001c1.452,0,2.632,1.18,2.632,2.632C77.684,52.769,76.504,53.947,75.052,53.947"/></g></svg>