<?xml version="1.0" encoding="UTF-8" standalone="no"?><svg xmlns="http://www.w3.org/2000/svg" xmlns:xlink="http://www.w3.org/1999/xlink" fill="#ffdada" height="122" preserveAspectRatio="xMidYMid meet" version="1" viewBox="0.0 0.0 96.0 122.0" width="96" zoomAndPan="magnify"><g id="change1_1"><path d="M13.315,24.571h7.006c-0.794-1.1-2.093-1.796-3.503-1.796S14.109,23.472,13.315,24.571z" fill="inherit"/><path d="M20.636,84.775c-5.063,0-9.182,4.092-9.182,9.123s4.119,9.123,9.182,9.123s9.182-4.092,9.182-9.123 S25.699,84.775,20.636,84.775z M25.221,90.745l-6.364,7.592c-0.191,0.227-0.472,0.357-0.767,0.357c-0.018,0-0.036,0-0.053-0.001 c-0.314-0.017-0.602-0.18-0.777-0.441l-2.545-3.796c-0.308-0.459-0.185-1.08,0.273-1.388c0.459-0.309,1.08-0.186,1.388,0.273 l1.804,2.69l5.508-6.572c0.355-0.423,0.985-0.479,1.409-0.124C25.52,89.69,25.576,90.321,25.221,90.745z" fill="inherit"/><path d="M9.268,17.714H4.005c0.406,1.049,1.433,1.796,2.631,1.796C7.835,19.51,8.862,18.764,9.268,17.714z" fill="inherit"/><path d="M20.636,79.714c-7.87,0-14.272,6.363-14.272,14.184s6.403,14.184,14.272,14.184c7.87,0,14.273-6.363,14.273-14.184 S28.506,79.714,20.636,79.714z M20.636,105.021c-6.166,0-11.182-4.99-11.182-11.123s5.016-11.123,11.182-11.123 c6.166,0,11.182,4.99,11.182,11.123S26.802,105.021,20.636,105.021z" fill="inherit"/><path d="M6.636 12.323L4.59 15.714 8.683 15.714z" fill="inherit"/><ellipse cx="16.818" cy="6.592" fill="inherit" rx="1.545" ry="1.531"/><path d="M86.545,7.592v107.816c0,0.552-0.448,1-1,1H11.455V122H96V7.592H86.545z" fill="inherit"/><path d="M84.545,0H0v114.408h84.545V0z M42.273,9.388h25.454c0.552,0,1,0.448,1,1s-0.448,1-1,1H42.273c-0.552,0-1-0.448-1-1 S41.721,9.388,42.273,9.388z M1.818,16.714c0-0.024,0.012-0.044,0.014-0.068c0.004-0.067,0.021-0.13,0.039-0.195 c0.018-0.066,0.037-0.129,0.068-0.189c0.011-0.021,0.011-0.044,0.023-0.065L5.78,9.871C5.803,9.833,5.84,9.81,5.867,9.776 C5.904,9.729,5.94,9.687,5.984,9.647c0.067-0.059,0.139-0.103,0.217-0.141c0.031-0.015,0.053-0.044,0.086-0.056l7.011-2.613 c-0.006-0.083-0.025-0.161-0.025-0.245c0-1.947,1.59-3.531,3.545-3.531s3.545,1.584,3.545,3.531c0,0.084-0.019,0.163-0.025,0.245 l7.01,2.613c0.034,0.012,0.056,0.041,0.088,0.057c0.077,0.038,0.148,0.081,0.214,0.139c0.045,0.04,0.081,0.083,0.118,0.13 c0.027,0.034,0.064,0.057,0.087,0.095l3.818,6.327c0.012,0.021,0.013,0.044,0.023,0.065c0.031,0.06,0.049,0.123,0.068,0.189 c0.018,0.066,0.035,0.128,0.039,0.195c0.002,0.024,0.014,0.044,0.014,0.068c0,2.645-2.162,4.796-4.818,4.796 s-4.818-2.151-4.818-4.796c0-0.024,0.012-0.044,0.014-0.068c0.004-0.067,0.021-0.13,0.039-0.195 c0.018-0.066,0.037-0.129,0.068-0.189c0.011-0.021,0.011-0.044,0.023-0.065l3.195-5.294L19.637,8.71 c-0.452,0.594-1.084,1.035-1.819,1.252v10.896c2.362,0.383,4.365,2.097,5.05,4.431c0.089,0.302,0.03,0.629-0.159,0.881 c-0.188,0.252-0.485,0.401-0.8,0.401H11.727c-0.315,0-0.612-0.148-0.8-0.401c-0.189-0.252-0.248-0.579-0.159-0.881 c0.685-2.334,2.688-4.048,5.051-4.431V9.962C15.084,9.745,14.451,9.304,14,8.71l-5.884,2.193l3.195,5.294 c0.012,0.021,0.013,0.044,0.023,0.065c0.031,0.06,0.049,0.123,0.068,0.189c0.018,0.066,0.035,0.128,0.039,0.195 c0.002,0.024,0.014,0.044,0.014,0.068c0,2.645-2.162,4.796-4.818,4.796S1.818,19.359,1.818,16.714z M75.364,64.531H9.182 c-0.552,0-1-0.448-1-1s0.448-1,1-1h66.182c0.552,0,1,0.448,1,1S75.916,64.531,75.364,64.531z M76.364,73.653c0,0.552-0.448,1-1,1 H35.909c-0.552,0-1-0.448-1-1s0.448-1,1-1h39.455C75.916,72.653,76.364,73.101,76.364,73.653z M75.364,53.143H9.182 c-0.552,0-1-0.448-1-1s0.448-1,1-1h66.182c0.552,0,1,0.448,1,1S75.916,53.143,75.364,53.143z M8.182,34.429c0-0.552,0.448-1,1-1 h15.273c0.552,0,1,0.448,1,1s-0.448,1-1,1H9.182C8.629,35.429,8.182,34.981,8.182,34.429z M75.364,43.021H15.545 c-0.552,0-1-0.448-1-1s0.448-1,1-1h59.818c0.552,0,1,0.448,1,1S75.916,43.021,75.364,43.021z M20.636,110.082 c-8.973,0-16.272-7.26-16.272-16.184s7.3-16.184,16.272-16.184c8.973,0,16.273,7.26,16.273,16.184S29.609,110.082,20.636,110.082z M74.19,103.75l-25.455,2.531c-0.034,0.003-0.067,0.005-0.1,0.005c-0.508,0-0.943-0.385-0.994-0.901 c-0.055-0.55,0.347-1.04,0.896-1.094l25.455-2.531c0.553-0.061,1.04,0.347,1.094,0.896C75.141,103.206,74.739,103.695,74.19,103.75 z M78.271,95.903c-1.219,0.472-2.479,0.892-3.746,1.249c-2.038,0.573-4.138,0.993-6.243,1.249c-0.404,0.048-0.794-0.15-0.993-0.503 s-0.164-0.791,0.087-1.109c0.495-0.626,0.843-1.322,1.035-2.067c0.086-0.332,0.347-1.341,0.194-1.554 c-0.08-0.081-0.789-0.282-2.561,0.314c-3.366,1.132-5.598,4.145-6.438,5.279c-0.393,0.529-0.589,0.795-1.046,0.859 c-0.268,0.037-0.544-0.037-0.756-0.199c-0.35-0.27-0.644-0.771-0.064-1.631c0.237-0.352,0.678-1.008,0.933-1.879 c0.647-2.225,0.255-2.666,0.239-2.684c-0.125-0.127-0.847-0.406-4.962,1.439c-3.68,1.649-7.32,3.672-10.819,6.011 c-0.17,0.114-0.364,0.169-0.555,0.169c-0.323,0-0.64-0.156-0.833-0.444c-0.307-0.459-0.184-1.08,0.276-1.387 c3.591-2.401,7.331-4.479,11.112-6.174c3.622-1.623,5.966-2.31,7.223-0.999c0.576,0.6,0.727,1.453,0.68,2.337 c1.17-1.024,2.63-2.007,4.372-2.593c2.338-0.786,3.936-0.68,4.749,0.315c0.799,0.977,0.449,2.331,0.194,3.32 c-0.079,0.306-0.177,0.605-0.293,0.897c1.325-0.23,2.64-0.529,3.928-0.891c1.206-0.339,2.405-0.739,3.564-1.188 c0.516-0.198,1.094,0.057,1.294,0.571C79.041,95.124,78.785,95.703,78.271,95.903z M77.909,20.245H38.455c-0.552,0-1-0.448-1-1 s0.448-1,1-1h39.455c0.552,0,1,0.448,1,1S78.461,20.245,77.909,20.245z" fill="inherit"/><path d="M29.047 15.714L27 12.323 24.953 15.714z" fill="inherit"/><path d="M27,19.51c1.199,0,2.226-0.747,2.632-1.796h-5.264C24.774,18.764,25.801,19.51,27,19.51z" fill="inherit"/></g></svg>